# xmcd
#
# Track frame offsets:
#	150
#	12414
#	25142
#	34990
#	48594
#	60179
#	71829
#	85585
#	94438
#	109520
#
# Disc length: 1586 seconds
#
# Revision: 0
# Processed by: cddbd v1.4PL0 Copyright (c) Steve Scherf et al.
# Submitted via: EasyCDDAExtractor 4.6.9.1
#
DISCID=7c06300a
DTITLE=Patsy Cline - Heartaches
DYEAR=1900
DGENRE=Country
TTITLE0=Crazy
TTITLE1=I Fall To Pieces
TTITLE2=Heartaches
TTITLE3=She'a Got You
TTITLE4=Walkin' After Midnight
TTITLE5=Sweet Dreams of You
TTITLE6=You Belong To Me
TTITLE7=Anytime
TTITLE8=The Wayward Wind
TTITLE9=Back In Baby's Arms
EXTD=
EXTT0=
EXTT1=
EXTT2=
EXTT3=
EXTT4=
EXTT5=
EXTT6=
EXTT7=
EXTT8=
EXTT9=
PLAYORDER=
